<mxfile host="app.diagrams.net" modified="2023-01-13T19:27:22.941Z" agent="5.0 (Windows NT 10.0; Win64; x64) AppleWebKit/537.36 (KHTML, like Gecko) Chrome/108.0.0.0 Safari/537.36" etag="1huijyrXorIGjcQOsxPt" version="20.8.5" type="github">
  <diagram id="GvvUexiZcvUM23ZOaL1L" name="PÃ¡gina-1">
    <mxGraphModel dx="2534" dy="452" grid="1" gridSize="10" guides="1" tooltips="1" connect="1" arrows="1" fold="1" page="1" pageScale="1" pageWidth="827" pageHeight="1169" math="0" shadow="0">
      <root>
        <mxCell id="0" />
        <mxCell id="1" parent="0" />
        <mxCell id="2hzSjyWvyzGlFzEyzvi6-1" value="" style="ellipse;whiteSpace=wrap;html=1;aspect=fixed;fontStyle=1" parent="1" vertex="1">
          <mxGeometry x="60" y="10" width="80" height="80" as="geometry" />
        </mxCell>
        <mxCell id="2hzSjyWvyzGlFzEyzvi6-3" value="md link" style="text;strokeColor=none;align=center;fillColor=none;html=1;verticalAlign=middle;whiteSpace=wrap;rounded=0;" parent="1" vertex="1">
          <mxGeometry x="70" y="35" width="60" height="30" as="geometry" />
        </mxCell>
        <mxCell id="2hzSjyWvyzGlFzEyzvi6-4" value="" style="endArrow=classic;startArrow=classic;html=1;rounded=0;" parent="1" edge="1">
          <mxGeometry width="50" height="50" relative="1" as="geometry">
            <mxPoint x="-1190" y="155" as="sourcePoint" />
            <mxPoint x="-1090" y="155" as="targetPoint" />
            <Array as="points">
              <mxPoint x="-1140" y="105" />
              <mxPoint x="-1090" y="155" />
              <mxPoint x="-1080" y="155" />
            </Array>
          </mxGeometry>
        </mxCell>
        <mxCell id="2hzSjyWvyzGlFzEyzvi6-5" value="" style="endArrow=none;html=1;rounded=0;" parent="1" edge="1">
          <mxGeometry width="50" height="50" relative="1" as="geometry">
            <mxPoint x="100" y="140" as="sourcePoint" />
            <mxPoint x="100" y="90" as="targetPoint" />
            <Array as="points">
              <mxPoint x="90" y="140" />
              <mxPoint x="100" y="140" />
              <mxPoint x="100" y="110" />
            </Array>
          </mxGeometry>
        </mxCell>
        <mxCell id="-6xz3oAqLnDv11upYqAA-6" value="" style="edgeStyle=orthogonalEdgeStyle;rounded=0;orthogonalLoop=1;jettySize=auto;html=1;" edge="1" parent="1" source="-6xz3oAqLnDv11upYqAA-1" target="-6xz3oAqLnDv11upYqAA-5">
          <mxGeometry relative="1" as="geometry" />
        </mxCell>
        <mxCell id="-6xz3oAqLnDv11upYqAA-1" value="inicio" style="ellipse;whiteSpace=wrap;html=1;fontStyle=1" vertex="1" parent="1">
          <mxGeometry x="-1530" y="30" width="70" height="70" as="geometry" />
        </mxCell>
        <mxCell id="-6xz3oAqLnDv11upYqAA-2" value="" style="endArrow=classic;html=1;rounded=0;" edge="1" parent="1">
          <mxGeometry width="50" height="50" relative="1" as="geometry">
            <mxPoint x="-1540" y="180" as="sourcePoint" />
            <mxPoint x="-1490" y="130" as="targetPoint" />
          </mxGeometry>
        </mxCell>
        <mxCell id="-6xz3oAqLnDv11upYqAA-8" value="" style="edgeStyle=orthogonalEdgeStyle;rounded=0;orthogonalLoop=1;jettySize=auto;html=1;" edge="1" parent="1" source="-6xz3oAqLnDv11upYqAA-5" target="-6xz3oAqLnDv11upYqAA-7">
          <mxGeometry relative="1" as="geometry" />
        </mxCell>
        <mxCell id="-6xz3oAqLnDv11upYqAA-5" value="path" style="whiteSpace=wrap;html=1;fontStyle=1;" vertex="1" parent="1">
          <mxGeometry x="-1405" y="35" width="120" height="60" as="geometry" />
        </mxCell>
        <mxCell id="-6xz3oAqLnDv11upYqAA-7" value="existe path?" style="rhombus;whiteSpace=wrap;html=1;fontStyle=1;" vertex="1" parent="1">
          <mxGeometry x="-1185" y="25" width="80" height="80" as="geometry" />
        </mxCell>
        <mxCell id="-6xz3oAqLnDv11upYqAA-15" value="" style="edgeStyle=orthogonalEdgeStyle;rounded=0;orthogonalLoop=1;jettySize=auto;html=1;" edge="1" parent="1" source="-6xz3oAqLnDv11upYqAA-12" target="-6xz3oAqLnDv11upYqAA-14">
          <mxGeometry relative="1" as="geometry" />
        </mxCell>
        <mxCell id="-6xz3oAqLnDv11upYqAA-12" value="si" style="ellipse;whiteSpace=wrap;html=1;aspect=fixed;" vertex="1" parent="1">
          <mxGeometry x="-1100" y="160" width="40" height="40" as="geometry" />
        </mxCell>
        <mxCell id="-6xz3oAqLnDv11upYqAA-13" value="no" style="ellipse;whiteSpace=wrap;html=1;aspect=fixed;" vertex="1" parent="1">
          <mxGeometry x="-1230" y="160" width="40" height="40" as="geometry" />
        </mxCell>
        <mxCell id="-6xz3oAqLnDv11upYqAA-17" value="" style="edgeStyle=orthogonalEdgeStyle;rounded=0;orthogonalLoop=1;jettySize=auto;html=1;" edge="1" parent="1" source="-6xz3oAqLnDv11upYqAA-14" target="-6xz3oAqLnDv11upYqAA-16">
          <mxGeometry relative="1" as="geometry" />
        </mxCell>
        <mxCell id="-6xz3oAqLnDv11upYqAA-19" value="" style="edgeStyle=orthogonalEdgeStyle;rounded=0;orthogonalLoop=1;jettySize=auto;html=1;" edge="1" parent="1" source="-6xz3oAqLnDv11upYqAA-14" target="-6xz3oAqLnDv11upYqAA-18">
          <mxGeometry relative="1" as="geometry" />
        </mxCell>
        <mxCell id="-6xz3oAqLnDv11upYqAA-14" value="es absoluta?" style="rhombus;whiteSpace=wrap;html=1;" vertex="1" parent="1">
          <mxGeometry x="-1120" y="250" width="80" height="80" as="geometry" />
        </mxCell>
        <mxCell id="-6xz3oAqLnDv11upYqAA-21" value="" style="edgeStyle=orthogonalEdgeStyle;rounded=0;orthogonalLoop=1;jettySize=auto;html=1;" edge="1" parent="1" source="-6xz3oAqLnDv11upYqAA-16" target="-6xz3oAqLnDv11upYqAA-20">
          <mxGeometry relative="1" as="geometry" />
        </mxCell>
        <mxCell id="-6xz3oAqLnDv11upYqAA-16" value="no" style="ellipse;whiteSpace=wrap;html=1;" vertex="1" parent="1">
          <mxGeometry x="-940" y="320" width="40" height="40" as="geometry" />
        </mxCell>
        <mxCell id="-6xz3oAqLnDv11upYqAA-23" value="" style="edgeStyle=orthogonalEdgeStyle;rounded=0;orthogonalLoop=1;jettySize=auto;html=1;" edge="1" parent="1" source="-6xz3oAqLnDv11upYqAA-18" target="-6xz3oAqLnDv11upYqAA-22">
          <mxGeometry relative="1" as="geometry" />
        </mxCell>
        <mxCell id="-6xz3oAqLnDv11upYqAA-18" value="si" style="ellipse;whiteSpace=wrap;html=1;" vertex="1" parent="1">
          <mxGeometry x="-1120" y="370" width="40" height="40" as="geometry" />
        </mxCell>
        <mxCell id="-6xz3oAqLnDv11upYqAA-20" value="volverla absoluta" style="whiteSpace=wrap;html=1;" vertex="1" parent="1">
          <mxGeometry x="-860" y="310" width="100" height="60" as="geometry" />
        </mxCell>
        <mxCell id="-6xz3oAqLnDv11upYqAA-25" value="" style="edgeStyle=orthogonalEdgeStyle;rounded=0;orthogonalLoop=1;jettySize=auto;html=1;" edge="1" parent="1" source="-6xz3oAqLnDv11upYqAA-22" target="-6xz3oAqLnDv11upYqAA-24">
          <mxGeometry relative="1" as="geometry" />
        </mxCell>
        <mxCell id="-6xz3oAqLnDv11upYqAA-27" value="" style="edgeStyle=orthogonalEdgeStyle;rounded=0;orthogonalLoop=1;jettySize=auto;html=1;" edge="1" parent="1" source="-6xz3oAqLnDv11upYqAA-22" target="-6xz3oAqLnDv11upYqAA-26">
          <mxGeometry relative="1" as="geometry" />
        </mxCell>
        <mxCell id="-6xz3oAqLnDv11upYqAA-22" value="es archivo?" style="rhombus;whiteSpace=wrap;html=1;" vertex="1" parent="1">
          <mxGeometry x="-1140" y="470" width="80" height="80" as="geometry" />
        </mxCell>
        <mxCell id="-6xz3oAqLnDv11upYqAA-24" value="no" style="ellipse;whiteSpace=wrap;html=1;" vertex="1" parent="1">
          <mxGeometry x="-1240" y="485" width="40" height="50" as="geometry" />
        </mxCell>
        <mxCell id="-6xz3oAqLnDv11upYqAA-31" value="" style="edgeStyle=orthogonalEdgeStyle;rounded=0;orthogonalLoop=1;jettySize=auto;html=1;" edge="1" parent="1" source="-6xz3oAqLnDv11upYqAA-26" target="-6xz3oAqLnDv11upYqAA-30">
          <mxGeometry relative="1" as="geometry" />
        </mxCell>
        <mxCell id="-6xz3oAqLnDv11upYqAA-26" value="si" style="ellipse;whiteSpace=wrap;html=1;" vertex="1" parent="1">
          <mxGeometry x="-1125" y="590" width="50" height="50" as="geometry" />
        </mxCell>
        <mxCell id="-6xz3oAqLnDv11upYqAA-33" value="" style="edgeStyle=orthogonalEdgeStyle;rounded=0;orthogonalLoop=1;jettySize=auto;html=1;" edge="1" parent="1" source="-6xz3oAqLnDv11upYqAA-30" target="-6xz3oAqLnDv11upYqAA-32">
          <mxGeometry relative="1" as="geometry" />
        </mxCell>
        <mxCell id="-6xz3oAqLnDv11upYqAA-35" value="" style="edgeStyle=orthogonalEdgeStyle;rounded=0;orthogonalLoop=1;jettySize=auto;html=1;" edge="1" parent="1" source="-6xz3oAqLnDv11upYqAA-30" target="-6xz3oAqLnDv11upYqAA-34">
          <mxGeometry relative="1" as="geometry" />
        </mxCell>
        <mxCell id="-6xz3oAqLnDv11upYqAA-30" value="es .md?&lt;br&gt;" style="rhombus;whiteSpace=wrap;html=1;" vertex="1" parent="1">
          <mxGeometry x="-1140" y="705" width="80" height="80" as="geometry" />
        </mxCell>
        <mxCell id="-6xz3oAqLnDv11upYqAA-32" value="no" style="ellipse;whiteSpace=wrap;html=1;" vertex="1" parent="1">
          <mxGeometry x="-1260" y="717.5" width="50" height="55" as="geometry" />
        </mxCell>
        <mxCell id="-6xz3oAqLnDv11upYqAA-37" value="" style="edgeStyle=orthogonalEdgeStyle;rounded=0;orthogonalLoop=1;jettySize=auto;html=1;" edge="1" parent="1" source="-6xz3oAqLnDv11upYqAA-34" target="-6xz3oAqLnDv11upYqAA-36">
          <mxGeometry relative="1" as="geometry" />
        </mxCell>
        <mxCell id="-6xz3oAqLnDv11upYqAA-34" value="si" style="ellipse;whiteSpace=wrap;html=1;" vertex="1" parent="1">
          <mxGeometry x="-1125" y="840" width="50" height="45" as="geometry" />
        </mxCell>
        <mxCell id="-6xz3oAqLnDv11upYqAA-36" value="" style="rhombus;whiteSpace=wrap;html=1;" vertex="1" parent="1">
          <mxGeometry x="-1150" y="980" width="70" height="42.5" as="geometry" />
        </mxCell>
        <mxCell id="-6xz3oAqLnDv11upYqAA-43" value="" style="edgeStyle=orthogonalEdgeStyle;rounded=0;orthogonalLoop=1;jettySize=auto;html=1;" edge="1" parent="1" source="-6xz3oAqLnDv11upYqAA-41" target="-6xz3oAqLnDv11upYqAA-42">
          <mxGeometry relative="1" as="geometry" />
        </mxCell>
        <mxCell id="-6xz3oAqLnDv11upYqAA-45" value="" style="edgeStyle=orthogonalEdgeStyle;rounded=0;orthogonalLoop=1;jettySize=auto;html=1;" edge="1" parent="1" source="-6xz3oAqLnDv11upYqAA-41" target="-6xz3oAqLnDv11upYqAA-44">
          <mxGeometry relative="1" as="geometry" />
        </mxCell>
        <mxCell id="-6xz3oAqLnDv11upYqAA-41" value="leer archivo" style="rounded=1;whiteSpace=wrap;html=1;" vertex="1" parent="1">
          <mxGeometry x="-1175" y="980" width="120" height="60" as="geometry" />
        </mxCell>
        <mxCell id="-6xz3oAqLnDv11upYqAA-51" value="" style="edgeStyle=orthogonalEdgeStyle;rounded=0;orthogonalLoop=1;jettySize=auto;html=1;" edge="1" parent="1" source="-6xz3oAqLnDv11upYqAA-42" target="-6xz3oAqLnDv11upYqAA-50">
          <mxGeometry relative="1" as="geometry" />
        </mxCell>
        <mxCell id="-6xz3oAqLnDv11upYqAA-53" value="" style="edgeStyle=orthogonalEdgeStyle;rounded=0;orthogonalLoop=1;jettySize=auto;html=1;" edge="1" parent="1" source="-6xz3oAqLnDv11upYqAA-42" target="-6xz3oAqLnDv11upYqAA-52">
          <mxGeometry relative="1" as="geometry" />
        </mxCell>
        <mxCell id="-6xz3oAqLnDv11upYqAA-42" value="validate" style="rounded=1;whiteSpace=wrap;html=1;" vertex="1" parent="1">
          <mxGeometry x="-1175" y="1120" width="95" height="50" as="geometry" />
        </mxCell>
        <mxCell id="-6xz3oAqLnDv11upYqAA-47" value="" style="edgeStyle=orthogonalEdgeStyle;rounded=0;orthogonalLoop=1;jettySize=auto;html=1;" edge="1" parent="1" source="-6xz3oAqLnDv11upYqAA-44" target="-6xz3oAqLnDv11upYqAA-46">
          <mxGeometry relative="1" as="geometry" />
        </mxCell>
        <mxCell id="-6xz3oAqLnDv11upYqAA-49" value="" style="edgeStyle=orthogonalEdgeStyle;rounded=0;orthogonalLoop=1;jettySize=auto;html=1;" edge="1" parent="1" source="-6xz3oAqLnDv11upYqAA-44" target="-6xz3oAqLnDv11upYqAA-48">
          <mxGeometry relative="1" as="geometry" />
        </mxCell>
        <mxCell id="-6xz3oAqLnDv11upYqAA-44" value="tiene links ?" style="rhombus;whiteSpace=wrap;html=1;rounded=1;" vertex="1" parent="1">
          <mxGeometry x="-955" y="970" width="80" height="80" as="geometry" />
        </mxCell>
        <mxCell id="-6xz3oAqLnDv11upYqAA-46" value="no" style="ellipse;whiteSpace=wrap;html=1;rounded=1;" vertex="1" parent="1">
          <mxGeometry x="-795" y="970" width="55" height="50" as="geometry" />
        </mxCell>
        <mxCell id="-6xz3oAqLnDv11upYqAA-48" value="si" style="ellipse;whiteSpace=wrap;html=1;rounded=1;" vertex="1" parent="1">
          <mxGeometry x="-955" y="1130" width="45" height="40" as="geometry" />
        </mxCell>
        <mxCell id="-6xz3oAqLnDv11upYqAA-50" value="false" style="ellipse;whiteSpace=wrap;html=1;rounded=1;" vertex="1" parent="1">
          <mxGeometry x="-1342.5" y="1105" width="52.5" height="55" as="geometry" />
        </mxCell>
        <mxCell id="-6xz3oAqLnDv11upYqAA-52" value="true" style="ellipse;whiteSpace=wrap;html=1;rounded=1;" vertex="1" parent="1">
          <mxGeometry x="-1167.5" y="1235" width="57.5" height="55" as="geometry" />
        </mxCell>
      </root>
    </mxGraphModel>
  </diagram>
</mxfile>
